<?xml version="1.0" encoding="utf-8"?>
<!-- Generator: Adobe Illustrator 16.0.4, SVG Export Plug-In . SVG Version: 6.00 Build 0)  -->
<!DOCTYPE svg PUBLIC "-//W3C//DTD SVG 1.1//EN" "http://www.w3.org/Graphics/SVG/1.1/DTD/svg11.dtd" [
	<!ENTITY ns_flows "http://ns.adobe.com/Flows/1.0/">
	<!ENTITY ns_extend "http://ns.adobe.com/Extensibility/1.0/">
	<!ENTITY ns_ai "http://ns.adobe.com/AdobeIllustrator/10.0/">
	<!ENTITY ns_graphs "http://ns.adobe.com/Graphs/1.0/">
]>
<svg version="1.1" id="Layer_1" xmlns:x="&ns_extend;" xmlns:i="&ns_ai;" xmlns:graph="&ns_graphs;"
	 xmlns="http://www.w3.org/2000/svg" xmlns:xlink="http://www.w3.org/1999/xlink" xmlns:a="http://ns.adobe.com/AdobeSVGViewerExtensions/3.0/"
	 x="0px" y="0px" width="36px" height="36px" viewBox="0 0 36 36" enable-background="new 0 0 36 36" xml:space="preserve">
<g>
	<path fill="#DFDEDE" d="M17.34,12.427c0.164,0.527,0.398,1.031,0.714,1.485c0.314-0.45,0.547-0.95,0.71-1.472
		c2.089-0.553,3.911-2.023,4.813-4.171c0.998-2.374,0.628-4.979-0.749-6.942c-1.889,0.312-3.618,1.37-4.748,2.991
		c0.286,0.41,0.534,0.854,0.735,1.333c0.699,1.663,0.714,3.437,0.195,5.026c-0.021-0.638-0.15-1.282-0.412-1.905
		c-0.149-0.356-0.334-0.686-0.546-0.99c-0.212,0.305-0.397,0.634-0.546,0.99c-0.242,0.577-0.366,1.172-0.4,1.763
		c-0.473-1.553-0.44-3.27,0.238-4.884c0.201-0.479,0.45-0.923,0.735-1.333c-1.129-1.621-2.859-2.68-4.748-2.991
		c-1.377,1.963-1.747,4.568-0.75,6.942C13.478,10.396,15.274,11.862,17.34,12.427z"/>
	<path fill="#DFDEDE" d="M18.715,23.572c-0.163-0.551-0.405-1.076-0.734-1.55c-0.33,0.474-0.571,1-0.735,1.551
		c-2.067,0.563-3.866,2.029-4.76,4.157c-0.998,2.375-0.627,4.979,0.75,6.942c1.889-0.312,3.618-1.369,4.748-2.99
		c-0.286-0.41-0.534-0.854-0.735-1.333c-0.69-1.642-0.712-3.389-0.214-4.962c0.033,0.595,0.157,1.194,0.401,1.775
		c0.149,0.355,0.334,0.686,0.546,0.989c0.212-0.304,0.396-0.634,0.546-0.989c0.246-0.585,0.37-1.188,0.402-1.787
		c0.502,1.576,0.481,3.328-0.21,4.974c-0.201,0.479-0.45,0.923-0.735,1.333c1.129,1.621,2.858,2.679,4.747,2.99
		c1.377-1.963,1.747-4.567,0.75-6.942C22.586,25.601,20.785,24.135,18.715,23.572z"/>
	<path fill="#DFDEDE" d="M22.443,14.601c-0.395,0.41-0.73,0.874-0.978,1.388c0.569,0.055,1.14,0.008,1.694-0.117
		c1.508,1.525,3.668,2.374,5.963,2.107c2.559-0.297,4.646-1.898,5.68-4.062c-1.199-1.492-2.969-2.481-4.936-2.669
		c-0.217,0.45-0.482,0.886-0.801,1.297c-1.09,1.405-2.598,2.282-4.211,2.621c0.504-0.321,0.969-0.726,1.356-1.226
		c0.237-0.306,0.434-0.629,0.595-0.963c-0.369-0.035-0.748-0.033-1.131,0.012c-0.636,0.073-1.227,0.264-1.769,0.533
		c1.127-1.212,2.663-2.053,4.437-2.259c0.516-0.061,1.025-0.063,1.523-0.016c0.856-1.779,0.929-3.805,0.273-5.603
		c-2.387-0.236-4.838,0.721-6.416,2.756C22.307,10.229,21.915,12.521,22.443,14.601z"/>
	<path fill="#DFDEDE" d="M13.404,21.748c0.491-0.456,0.896-1.001,1.188-1.606c-0.659-0.063-1.324-0.003-1.959,0.175
		c-1.506-1.521-3.663-2.363-5.953-2.098C4.122,18.516,2.034,20.117,1,22.28c1.199,1.492,2.97,2.48,4.936,2.669
		c0.217-0.451,0.482-0.886,0.801-1.297c1.141-1.471,2.739-2.369,4.438-2.671c-0.494,0.319-0.948,0.717-1.329,1.208
		c-0.237,0.305-0.434,0.628-0.595,0.963c0.369,0.035,0.748,0.033,1.131-0.012c0.502-0.058,0.978-0.188,1.423-0.371
		c-1.119,1.16-2.621,1.964-4.347,2.164c-0.516,0.06-1.026,0.062-1.523,0.016c-0.857,1.779-0.929,3.805-0.273,5.603
		c2.386,0.235,4.837-0.722,6.416-2.756C13.461,26.013,13.875,23.787,13.404,21.748z"/>
	<path fill="#DFDEDE" d="M35,22.409c-0.991-2.184-3.047-3.826-5.6-4.173c-2.289-0.312-4.467,0.495-6.003,1.991
		c-0.574-0.149-1.169-0.212-1.763-0.168c0.249,0.545,0.594,1.038,1.006,1.47c-0.551,2.058-0.195,4.336,1.175,6.176
		c1.538,2.065,3.97,3.071,6.36,2.882c0.691-1.784,0.66-3.812-0.162-5.607c-0.498,0.038-1.008,0.025-1.523-0.045
		c-1.751-0.237-3.258-1.095-4.357-2.31c0.508,0.252,1.059,0.437,1.651,0.517c0.383,0.052,0.761,0.062,1.132,0.033
		c-0.154-0.337-0.346-0.664-0.577-0.974c-0.379-0.509-0.836-0.923-1.335-1.255c1.635,0.359,3.154,1.273,4.233,2.722
		c0.312,0.417,0.569,0.857,0.776,1.312C31.983,24.83,33.772,23.877,35,22.409z"/>
	<path fill="#DFDEDE" d="M6.795,17.961c2.311,0.313,4.506-0.512,6.043-2.034c0.542,0.13,1.102,0.185,1.66,0.143
		c-0.236-0.516-0.561-0.984-0.944-1.4c0.552-2.058,0.197-4.336-1.174-6.178c-1.538-2.065-3.97-3.07-6.36-2.882
		c-0.691,1.785-0.66,3.812,0.162,5.607c0.499-0.038,1.008-0.025,1.524,0.045c1.72,0.234,3.204,1.065,4.299,2.245
		c-0.509-0.253-1.062-0.438-1.656-0.519c-0.383-0.053-0.762-0.062-1.132-0.034c0.154,0.338,0.346,0.665,0.577,0.975
		c0.408,0.548,0.904,0.991,1.45,1.334c-1.655-0.351-3.195-1.271-4.285-2.733c-0.311-0.418-0.569-0.857-0.777-1.312
		c-1.969,0.149-3.758,1.104-4.986,2.571C2.187,15.971,4.243,17.613,6.795,17.961z"/>
</g>
</svg>
