<?xml version="1.0" encoding="utf-8"?>
<!-- Generator: Adobe Illustrator 16.0.4, SVG Export Plug-In . SVG Version: 6.00 Build 0)  -->
<!DOCTYPE svg PUBLIC "-//W3C//DTD SVG 1.1//EN" "http://www.w3.org/Graphics/SVG/1.1/DTD/svg11.dtd" [
	<!ENTITY ns_flows "http://ns.adobe.com/Flows/1.0/">
	<!ENTITY ns_extend "http://ns.adobe.com/Extensibility/1.0/">
	<!ENTITY ns_ai "http://ns.adobe.com/AdobeIllustrator/10.0/">
	<!ENTITY ns_graphs "http://ns.adobe.com/Graphs/1.0/">
]>
<svg version="1.1" id="Layer_1" xmlns:x="&ns_extend;" xmlns:i="&ns_ai;" xmlns:graph="&ns_graphs;"
	 xmlns="http://www.w3.org/2000/svg" xmlns:xlink="http://www.w3.org/1999/xlink" xmlns:a="http://ns.adobe.com/AdobeSVGViewerExtensions/3.0/"
	 x="0px" y="0px" width="230px" height="80px" viewBox="0 0 230 80" enable-background="new 0 0 230 80" xml:space="preserve">
<g>
	<path fill="#E2E71F" d="M43.308,28.073c0.011-0.015,0.021-0.031,0.031-0.046c-3.011-4.325-3.815-10.05-1.622-15.268
		c0.444-1.057,0.993-2.036,1.622-2.94c-2.49-3.576-6.306-5.91-10.472-6.598c-3.038,4.33-3.854,10.077-1.654,15.314
		C33.414,23.772,38.088,27.211,43.308,28.073z"/>
	<path fill="#E2E71F" d="M43.338,28.027c0.011,0.015,0.021,0.031,0.031,0.046c5.219-0.862,9.895-4.301,12.095-9.538
		c2.2-5.237,1.385-10.984-1.653-15.314c-4.166,0.688-7.981,3.022-10.473,6.598c0.63,0.904,1.179,1.883,1.623,2.94
		C47.154,17.978,46.35,23.702,43.338,28.027z"/>
	<path fill="#E2E71F" d="M43.153,51.927c-0.011,0.015-0.02,0.03-0.031,0.045c3.011,4.325,3.815,10.05,1.622,15.268
		c-0.444,1.057-0.993,2.036-1.622,2.94c2.491,3.576,6.306,5.91,10.472,6.598c3.038-4.33,3.854-10.077,1.653-15.314
		C53.047,56.228,48.372,52.789,43.153,51.927z"/>
	<path fill="#E2E71F" d="M43.122,51.973c-0.011-0.015-0.021-0.03-0.031-0.045c-5.219,0.861-9.894,4.301-12.095,9.537
		c-2.2,5.238-1.384,10.984,1.653,15.314c4.166-0.688,7.982-3.022,10.473-6.598c-0.63-0.904-1.179-1.883-1.623-2.94
		C39.307,62.022,40.11,56.298,43.122,51.973z"/>
	<path fill="#95D600" d="M53.417,34.045c0.019,0.002,0.037,0.002,0.055,0.004c2.29-4.747,6.881-8.258,12.504-8.91
		c1.139-0.132,2.263-0.139,3.359-0.034c1.891-3.925,2.05-8.394,0.604-12.359c-5.264-0.52-10.671,1.591-14.153,6.08
		C52.305,23.314,51.605,29.076,53.417,34.045z"/>
	<path fill="#95D600" d="M53.472,34.049c-0.008,0.017-0.017,0.033-0.025,0.05c3.313,4.123,8.605,6.507,14.248,5.853
		c5.643-0.655,10.249-4.188,12.529-8.96c-2.645-3.291-6.551-5.472-10.889-5.886c-0.479,0.994-1.062,1.954-1.766,2.86
		C64.1,32.439,58.719,34.549,53.472,34.049z"/>
	<path fill="#95D600" d="M32.465,46.388c-0.019-0.002-0.037-0.002-0.056-0.004c-2.289,4.747-6.88,8.257-12.503,8.91
		c-1.139,0.132-2.263,0.139-3.359,0.034c-1.891,3.925-2.05,8.394-0.604,12.359c5.264,0.52,10.67-1.591,14.153-6.08
		C33.577,57.119,34.277,51.357,32.465,46.388z"/>
	<path fill="#95D600" d="M32.41,46.384c0.008-0.017,0.017-0.034,0.025-0.05c-3.313-4.124-8.605-6.507-14.248-5.853
		c-5.643,0.656-10.249,4.188-12.529,8.96c2.645,3.292,6.551,5.473,10.889,5.886c0.479-0.993,1.062-1.954,1.766-2.86
		C21.782,47.995,27.164,45.885,32.41,46.384z"/>
	<path fill="#8AE2D1" d="M80.659,49.726c-2.187-4.816-6.722-8.439-12.351-9.205c-5.628-0.765-10.966,1.514-14.36,5.572
		c0.008,0.017,0.016,0.034,0.024,0.051c5.255-0.396,10.594,1.819,13.975,6.359c0.686,0.92,1.254,1.891,1.713,2.895
		C74.004,55.067,77.951,52.963,80.659,49.726z"/>
	<path fill="#8AE2D1" d="M66.298,55.296c-5.608-0.762-10.13-4.363-12.326-9.153c-0.019,0.001-0.037,0.001-0.055,0.002
		c-1.91,4.933-1.323,10.708,2.07,15.263c3.393,4.556,8.757,6.774,14.031,6.357c1.523-3.937,1.455-8.408-0.357-12.369
		C68.561,55.48,67.436,55.451,66.298,55.296z"/>
	<path fill="#8AE2D1" d="M18.441,39.913c5.628,0.765,10.965-1.514,14.359-5.572c-0.008-0.017-0.017-0.034-0.024-0.051
		c-5.255,0.396-10.594-1.819-13.975-6.359c-0.686-0.92-1.254-1.892-1.713-2.895c-4.343,0.33-8.29,2.434-10.998,5.671
		C8.277,35.524,12.812,39.146,18.441,39.913z"/>
	<path fill="#8AE2D1" d="M20.451,25.136c5.609,0.763,10.131,4.363,12.326,9.154c0.018-0.001,0.037-0.001,0.056-0.002
		c1.909-4.933,1.322-10.708-2.07-15.263c-3.394-4.557-8.758-6.773-14.031-6.357c-1.523,3.936-1.456,8.408,0.357,12.369
		C18.188,24.953,19.313,24.981,20.451,25.136z"/>
	<path fill="#E2E71F" d="M43.278,30.983c2.236-3.212,2.833-7.463,1.205-11.339c-0.33-0.785-0.737-1.512-1.205-2.183
		c-0.468,0.671-0.875,1.398-1.205,2.183C40.445,23.52,41.042,27.771,43.278,30.983z"/>
	<path fill="#E2E71F" d="M43.117,48.873c-2.237,3.212-2.833,7.463-1.205,11.339c0.33,0.785,0.737,1.512,1.205,2.183
		c0.468-0.671,0.875-1.398,1.205-2.183C45.951,56.336,45.354,52.085,43.117,48.873z"/>
	<path fill="#E2E71F"  a:adobe-blending-mode="multiply" d="M43.278,30.983c2.236-3.212,2.833-7.463,1.205-11.339
		c-0.33-0.785-0.737-1.512-1.205-2.183c-0.468,0.671-0.875,1.398-1.205,2.183C40.445,23.52,41.042,27.771,43.278,30.983z"/>
	<path fill="#E2E71F"  a:adobe-blending-mode="multiply" d="M43.117,48.873c-2.237,3.212-2.833,7.463-1.205,11.339
		c0.33,0.785,0.737,1.512,1.205,2.183c0.468-0.671,0.875-1.398,1.205-2.183C45.951,56.336,45.354,52.085,43.117,48.873z"/>
	<path fill="#8AE2D1" d="M51.175,44.543c1.63,3.558,4.989,6.232,9.154,6.798c0.844,0.115,1.68,0.136,2.497,0.074
		c-0.341-0.745-0.763-1.466-1.272-2.149C59.043,45.894,55.078,44.249,51.175,44.543z"/>
	<path fill="#8AE2D1" d="M35.435,35.741c-1.63-3.558-4.988-6.232-9.154-6.798c-0.845-0.115-1.68-0.136-2.497-0.074
		c0.341,0.745,0.763,1.466,1.272,2.149C27.567,34.39,31.532,36.036,35.435,35.741z"/>
	<path fill="#8AE2D1"  a:adobe-blending-mode="multiply" d="M51.175,44.543c1.63,3.558,4.989,6.232,9.154,6.798
		c0.844,0.115,1.68,0.136,2.497,0.074c-0.341-0.745-0.763-1.466-1.272-2.149C59.043,45.894,55.078,44.249,51.175,44.543z"/>
	<path fill="#8AE2D1"  a:adobe-blending-mode="multiply" d="M35.435,35.741c-1.63-3.558-4.988-6.232-9.154-6.798
		c-0.845-0.115-1.68-0.136-2.497-0.074c0.341,0.745,0.763,1.466,1.272,2.149C27.567,34.39,31.532,36.036,35.435,35.741z"/>
	<path fill="#95D600" d="M60.089,28.945c-4.175,0.484-7.585,3.092-9.286,6.617c3.896,0.371,7.893-1.196,10.469-4.518
		c0.522-0.673,0.957-1.386,1.312-2.125C61.77,28.842,60.936,28.847,60.089,28.945z"/>
	<path fill="#95D600" d="M26.355,51.339c4.176-0.484,7.586-3.091,9.286-6.617c-3.896-0.371-7.893,1.196-10.469,4.518
		c-0.522,0.673-0.956,1.386-1.311,2.124C24.675,51.442,25.51,51.438,26.355,51.339z"/>
	<path fill="#95D600"  a:adobe-blending-mode="multiply" d="M60.089,28.945c-4.175,0.484-7.585,3.092-9.286,6.617
		c3.896,0.371,7.893-1.196,10.469-4.518c0.522-0.673,0.957-1.386,1.312-2.125C61.77,28.842,60.936,28.847,60.089,28.945z"/>
	<path fill="#95D600"  a:adobe-blending-mode="multiply" d="M26.355,51.339c4.176-0.484,7.586-3.091,9.286-6.617
		c-3.896-0.371-7.893,1.196-10.469,4.518c-0.522,0.673-0.956,1.386-1.311,2.124C24.675,51.442,25.51,51.438,26.355,51.339z"/>
	<path fill="#E2E71F" d="M43.308,28.073c0.011-0.015,0.021-0.031,0.031-0.046c-3.011-4.325-3.815-10.05-1.622-15.268
		c0.444-1.057,0.993-2.036,1.622-2.94c-2.49-3.576-6.306-5.91-10.472-6.598c-3.038,4.33-3.854,10.077-1.654,15.314
		C33.414,23.772,38.088,27.211,43.308,28.073z"/>
	<path fill="#E2E71F" d="M43.338,28.027c0.011,0.015,0.021,0.031,0.031,0.046c5.219-0.862,9.895-4.301,12.095-9.538
		c2.2-5.237,1.385-10.984-1.653-15.314c-4.166,0.688-7.981,3.022-10.473,6.598c0.63,0.904,1.179,1.883,1.623,2.94
		C47.154,17.978,46.35,23.702,43.338,28.027z"/>
	<path fill="#E2E71F" d="M43.153,51.927c-0.011,0.015-0.02,0.03-0.031,0.045c3.011,4.325,3.815,10.05,1.622,15.268
		c-0.444,1.057-0.993,2.036-1.622,2.94c2.491,3.576,6.306,5.91,10.472,6.598c3.038-4.33,3.854-10.077,1.653-15.314
		C53.047,56.228,48.372,52.789,43.153,51.927z"/>
	<path fill="#E2E71F" d="M43.122,51.973c-0.011-0.015-0.021-0.03-0.031-0.045c-5.219,0.861-9.894,4.301-12.095,9.537
		c-2.2,5.238-1.384,10.984,1.653,15.314c4.166-0.688,7.982-3.022,10.473-6.598c-0.63-0.904-1.179-1.883-1.623-2.94
		C39.307,62.022,40.11,56.298,43.122,51.973z"/>
	<path fill="#95D600" d="M53.417,34.045c0.019,0.002,0.037,0.002,0.055,0.004c2.29-4.747,6.881-8.258,12.504-8.91
		c1.139-0.132,2.263-0.139,3.359-0.034c1.891-3.925,2.05-8.394,0.604-12.359c-5.264-0.52-10.671,1.591-14.153,6.08
		C52.305,23.314,51.605,29.076,53.417,34.045z"/>
	<path fill="#95D600" d="M53.472,34.049c-0.008,0.017-0.017,0.033-0.025,0.05c3.313,4.123,8.605,6.507,14.248,5.853
		c5.643-0.655,10.249-4.188,12.529-8.96c-2.645-3.291-6.551-5.472-10.889-5.886c-0.479,0.994-1.062,1.954-1.766,2.86
		C64.1,32.439,58.719,34.549,53.472,34.049z"/>
	<path fill="#95D600" d="M32.465,46.388c-0.019-0.002-0.037-0.002-0.056-0.004c-2.289,4.747-6.88,8.257-12.503,8.91
		c-1.139,0.132-2.263,0.139-3.359,0.034c-1.891,3.925-2.05,8.394-0.604,12.359c5.264,0.52,10.67-1.591,14.153-6.08
		C33.577,57.119,34.277,51.357,32.465,46.388z"/>
	<path fill="#95D600" d="M32.41,46.384c0.008-0.017,0.017-0.034,0.025-0.05c-3.313-4.124-8.605-6.507-14.248-5.853
		c-5.643,0.656-10.249,4.188-12.529,8.96c2.645,3.292,6.551,5.473,10.889,5.886c0.479-0.993,1.062-1.954,1.766-2.86
		C21.782,47.995,27.164,45.885,32.41,46.384z"/>
	<path fill="#8AE2D1" d="M80.659,49.726c-2.187-4.816-6.722-8.439-12.351-9.205c-5.628-0.765-10.966,1.514-14.36,5.572
		c0.008,0.017,0.016,0.034,0.024,0.051c5.255-0.396,10.594,1.819,13.975,6.359c0.686,0.92,1.254,1.891,1.713,2.895
		C74.004,55.067,77.951,52.963,80.659,49.726z"/>
	<path fill="#8AE2D1" d="M66.298,55.296c-5.608-0.762-10.13-4.363-12.326-9.153c-0.019,0.001-0.037,0.001-0.055,0.002
		c-1.91,4.933-1.323,10.708,2.07,15.263c3.393,4.556,8.757,6.774,14.031,6.357c1.523-3.937,1.455-8.408-0.357-12.369
		C68.561,55.48,67.436,55.451,66.298,55.296z"/>
	<path fill="#8AE2D1" d="M18.441,39.913c5.628,0.765,10.965-1.514,14.359-5.572c-0.008-0.017-0.017-0.034-0.024-0.051
		c-5.255,0.396-10.594-1.819-13.975-6.359c-0.686-0.92-1.254-1.892-1.713-2.895c-4.343,0.33-8.29,2.434-10.998,5.671
		C8.277,35.524,12.812,39.146,18.441,39.913z"/>
	<path fill="#8AE2D1" d="M20.451,25.136c5.609,0.763,10.131,4.363,12.326,9.154c0.018-0.001,0.037-0.001,0.056-0.002
		c1.909-4.933,1.322-10.708-2.07-15.263c-3.394-4.557-8.758-6.773-14.031-6.357c-1.523,3.936-1.456,8.408,0.357,12.369
		C18.188,24.953,19.313,24.981,20.451,25.136z"/>
	<path fill="#E2E71F" d="M43.278,30.983c2.236-3.212,2.833-7.463,1.205-11.339c-0.33-0.785-0.737-1.512-1.205-2.183
		c-0.468,0.671-0.875,1.398-1.205,2.183C40.445,23.52,41.042,27.771,43.278,30.983z"/>
	<path fill="#E2E71F" d="M43.117,48.873c-2.237,3.212-2.833,7.463-1.205,11.339c0.33,0.785,0.737,1.512,1.205,2.183
		c0.468-0.671,0.875-1.398,1.205-2.183C45.951,56.336,45.354,52.085,43.117,48.873z"/>
	<path fill="#E2E71F"  a:adobe-blending-mode="multiply" d="M43.278,30.983c2.236-3.212,2.833-7.463,1.205-11.339
		c-0.33-0.785-0.737-1.512-1.205-2.183c-0.468,0.671-0.875,1.398-1.205,2.183C40.445,23.52,41.042,27.771,43.278,30.983z"/>
	<path fill="#E2E71F"  a:adobe-blending-mode="multiply" d="M43.117,48.873c-2.237,3.212-2.833,7.463-1.205,11.339
		c0.33,0.785,0.737,1.512,1.205,2.183c0.468-0.671,0.875-1.398,1.205-2.183C45.951,56.336,45.354,52.085,43.117,48.873z"/>
	<path fill="#8AE2D1" d="M51.175,44.543c1.63,3.558,4.989,6.232,9.154,6.798c0.844,0.115,1.68,0.136,2.497,0.074
		c-0.341-0.745-0.763-1.466-1.272-2.149C59.043,45.894,55.078,44.249,51.175,44.543z"/>
	<path fill="#8AE2D1" d="M35.435,35.741c-1.63-3.558-4.988-6.232-9.154-6.798c-0.845-0.115-1.68-0.136-2.497-0.074
		c0.341,0.745,0.763,1.466,1.272,2.149C27.567,34.39,31.532,36.036,35.435,35.741z"/>
	<path fill="#8AE2D1"  a:adobe-blending-mode="multiply" d="M51.175,44.543c1.63,3.558,4.989,6.232,9.154,6.798
		c0.844,0.115,1.68,0.136,2.497,0.074c-0.341-0.745-0.763-1.466-1.272-2.149C59.043,45.894,55.078,44.249,51.175,44.543z"/>
	<path fill="#8AE2D1"  a:adobe-blending-mode="multiply" d="M35.435,35.741c-1.63-3.558-4.988-6.232-9.154-6.798
		c-0.845-0.115-1.68-0.136-2.497-0.074c0.341,0.745,0.763,1.466,1.272,2.149C27.567,34.39,31.532,36.036,35.435,35.741z"/>
	<path fill="#95D600" d="M60.089,28.945c-4.175,0.484-7.585,3.092-9.286,6.617c3.896,0.371,7.893-1.196,10.469-4.518
		c0.522-0.673,0.957-1.386,1.312-2.125C61.77,28.842,60.936,28.847,60.089,28.945z"/>
	<path fill="#95D600" d="M26.355,51.339c4.176-0.484,7.586-3.091,9.286-6.617c-3.896-0.371-7.893,1.196-10.469,4.518
		c-0.522,0.673-0.956,1.386-1.311,2.124C24.675,51.442,25.51,51.438,26.355,51.339z"/>
	<path fill="#95D600"  a:adobe-blending-mode="multiply" d="M60.089,28.945c-4.175,0.484-7.585,3.092-9.286,6.617
		c3.896,0.371,7.893-1.196,10.469-4.518c0.522-0.673,0.957-1.386,1.312-2.125C61.77,28.842,60.936,28.847,60.089,28.945z"/>
	<path fill="#95D600"  a:adobe-blending-mode="multiply" d="M26.355,51.339c4.176-0.484,7.586-3.091,9.286-6.617
		c-3.896-0.371-7.893,1.196-10.469,4.518c-0.522,0.673-0.956,1.386-1.311,2.124C24.675,51.442,25.51,51.438,26.355,51.339z"/>
</g>
<g  a:adobe-blending-mode="multiply">
	<path fill="#B4B4B4"  a:adobe-blending-mode="normal" d="M102.974,20.89c-0.822-1.053-2.467-1.546-3.717-1.546
		c-1.448,0-3.454,0.658-3.454,2.401c0,4.244,10.725,1.513,10.725,9.672c0,5.198-4.178,7.666-8.981,7.666
		c-2.994,0-5.625-0.888-7.83-2.928l3.652-4.013c1.053,1.381,2.763,2.204,4.474,2.204c1.678,0,3.553-0.79,3.553-2.435
		c0-4.277-10.922-1.974-10.922-9.738c0-4.968,4.31-7.566,8.882-7.566c2.632,0,5.165,0.691,7.139,2.434L102.974,20.89z"/>
	<path fill="#B4B4B4"  a:adobe-blending-mode="normal" d="M125.112,38.49h-4.737v-2.171h-0.065c-0.658,1.25-2.27,2.566-4.672,2.566
		c-5,0-5.921-3.29-5.921-7.567v-8.816h4.935v7.83c0,1.842,0.033,4.211,2.566,4.211c2.566,0,2.961-2.007,2.961-4.079v-7.961h4.935
		V38.49z"/>
	<path fill="#B4B4B4"  a:adobe-blending-mode="normal" d="M128.597,22.502h4.737v2.171h0.066c0.658-1.25,2.27-2.566,4.671-2.566
		c5,0,5.921,3.29,5.921,7.566v8.817h-4.935v-7.83c0-1.842-0.033-4.211-2.566-4.211c-2.566,0-2.961,2.007-2.961,4.079v7.961h-4.935
		V22.502z"/>
	<path fill="#B4B4B4"  a:adobe-blending-mode="normal" d="M156.525,27.206c-0.724-0.888-1.678-1.349-2.862-1.349
		c-0.822,0-1.809,0.362-1.809,1.316c0,2.369,8.323,0.362,8.323,6.448c0,4.079-3.948,5.264-7.369,5.264
		c-2.237,0-4.705-0.56-6.284-2.171l2.994-3.323c0.921,1.119,2.007,1.744,3.487,1.744c1.119,0,2.237-0.296,2.237-1.151
		c0-2.566-8.323-0.395-8.323-6.481c0-3.75,3.356-5.396,6.711-5.396c2.105,0,4.441,0.526,5.921,2.105L156.525,27.206z"/>
	<path fill="#B4B4B4"  a:adobe-blending-mode="normal" d="M167.643,13.62v11.054h0.066c0.46-1.25,2.072-2.566,4.474-2.566
		c5,0,5.921,3.29,5.921,7.566v8.817h-4.935v-7.83c0-1.842-0.033-4.211-2.566-4.211c-2.566,0-2.961,2.007-2.961,4.079v7.961h-4.935
		V13.62H167.643z"/>
	<path fill="#B4B4B4"  a:adobe-blending-mode="normal" d="M184.123,14.606c1.579,0,2.862,1.283,2.862,2.862
		s-1.283,2.862-2.862,2.862s-2.862-1.283-2.862-2.862S182.543,14.606,184.123,14.606z M181.655,22.502h4.935V38.49h-4.935V22.502z"
		/>
	<path fill="#B4B4B4"  a:adobe-blending-mode="normal" d="M190.142,22.502h4.737v2.171h0.066c0.658-1.25,2.27-2.566,4.671-2.566
		c5,0,5.921,3.29,5.921,7.566v8.817h-4.935v-7.83c0-1.842-0.033-4.211-2.566-4.211c-2.566,0-2.961,2.007-2.961,4.079v7.961h-4.935
		V22.502z"/>
	<path fill="#B4B4B4"  a:adobe-blending-mode="normal" d="M224.156,35.727c-1.579,2.006-4.178,3.158-6.744,3.158
		c-4.935,0-8.882-3.29-8.882-8.389s3.948-8.389,8.882-8.389c4.606,0,7.501,3.29,7.501,8.389v1.546h-11.448
		c0.395,1.875,1.809,3.092,3.717,3.092c1.612,0,2.698-0.823,3.52-1.941L224.156,35.727z M219.978,28.687
		c0.033-1.645-1.25-3.026-3.027-3.026c-2.171,0-3.355,1.48-3.487,3.026H219.978z"/>
	<path fill="#B4B4B4"  a:adobe-blending-mode="normal" d="M109.455,46.91c-1.579-1.678-3.783-2.697-6.646-2.697
		c-5.987,0-9.573,4.704-9.573,10.066s3.586,10.067,9.573,10.067c2.402,0,4.705-0.658,6.448-1.645v-7.797h-5.56v-2.171h7.928v11.416
		c-2.599,1.546-5.987,2.369-8.817,2.369c-6.941,0-12.139-5.165-12.139-12.238c0-7.073,5.198-12.238,12.139-12.238
		c3.685,0,6.35,1.053,8.422,3.125L109.455,46.91z"/>
	<path fill="#B4B4B4"  a:adobe-blending-mode="normal" d="M117.282,55.332c0-1.382-0.066-2.566-0.132-4.803h2.138v2.862h0.066
		c0.625-1.645,2.237-3.257,4.935-3.257c0.625,0,1.151,0.066,1.612,0.197l-0.428,2.139c-0.263-0.099-0.658-0.165-1.25-0.165
		c-3.29,0-4.771,2.862-4.771,4.935v8.685h-2.171V55.332z"/>
	<path fill="#B4B4B4"  a:adobe-blending-mode="normal" d="M134.755,66.32c-4.77,0-8.159-3.455-8.159-8.093s3.389-8.093,8.159-8.093
		c4.803,0,8.191,3.454,8.191,8.093S139.558,66.32,134.755,66.32z M134.755,52.108c-3.553,0-5.79,2.665-5.79,6.119
		c0,3.455,2.237,6.119,5.79,6.119c3.586,0,5.823-2.665,5.823-6.119C140.578,54.772,138.341,52.108,134.755,52.108z"/>
	<path fill="#B4B4B4"  a:adobe-blending-mode="normal" d="M158.012,65.925c-0.099-0.822-0.099-1.645-0.099-2.467h-0.066
		c-0.954,1.678-3.125,2.862-5.165,2.862c-3.915,0-5.79-2.205-5.79-6.021v-9.771h2.171v8.521c0,3.421,0.954,5.296,4.178,5.296
		c0.461,0,4.672-0.296,4.672-5.921v-7.896h2.171v12.007c0,0.823,0.099,2.27,0.165,3.389H158.012z"/>
	<path fill="#B4B4B4"  a:adobe-blending-mode="normal" d="M165.182,50.529h2.171v2.566h0.065c1.415-2.073,3.948-2.961,5.988-2.961
		c4.803,0,8.191,3.454,8.191,8.093s-3.388,8.093-8.191,8.093c-2.04,0-4.573-0.889-5.988-2.961h-0.065v12.041h-2.171V50.529z
		 M173.406,52.108c-3.553,0-6.152,2.665-6.152,6.119c0,3.455,2.599,6.119,6.152,6.119c3.586,0,5.823-2.665,5.823-6.119
		C179.229,54.772,176.992,52.108,173.406,52.108z"/>
</g>
</svg>
