<?xml version="1.0" encoding="utf-8"?>
<!-- Generator: Adobe Illustrator 16.0.4, SVG Export Plug-In . SVG Version: 6.00 Build 0)  -->
<!DOCTYPE svg PUBLIC "-//W3C//DTD SVG 1.1//EN" "http://www.w3.org/Graphics/SVG/1.1/DTD/svg11.dtd" [
	<!ENTITY ns_flows "http://ns.adobe.com/Flows/1.0/">
	<!ENTITY ns_extend "http://ns.adobe.com/Extensibility/1.0/">
	<!ENTITY ns_ai "http://ns.adobe.com/AdobeIllustrator/10.0/">
	<!ENTITY ns_graphs "http://ns.adobe.com/Graphs/1.0/">
]>
<svg version="1.1" id="Layer_1" xmlns:x="&ns_extend;" xmlns:i="&ns_ai;" xmlns:graph="&ns_graphs;"
	 xmlns="http://www.w3.org/2000/svg" xmlns:xlink="http://www.w3.org/1999/xlink" xmlns:a="http://ns.adobe.com/AdobeSVGViewerExtensions/3.0/"
	 x="0px" y="0px" width="176px" height="96px" viewBox="0 0 176 96" enable-background="new 0 0 176 96" xml:space="preserve">
<g>
	<path fill="#DFDEDE" d="M88.971,23.444c0.007-0.011,0.015-0.021,0.021-0.032c-2.047-2.939-2.593-6.831-1.103-10.378
		c0.302-0.718,0.675-1.384,1.103-1.999c-1.693-2.43-4.286-4.018-7.118-4.485c-2.065,2.943-2.62,6.85-1.124,10.41
		C82.246,20.52,85.424,22.858,88.971,23.444z"/>
	<path fill="#DFDEDE" d="M88.992,23.413c0.007,0.011,0.014,0.021,0.021,0.032c3.547-0.586,6.726-2.924,8.222-6.483
		c1.495-3.56,0.941-7.466-1.125-10.41c-2.832,0.467-5.425,2.055-7.119,4.485c0.428,0.615,0.801,1.28,1.103,1.999
		C91.586,16.582,91.04,20.473,88.992,23.413z"/>
	<path fill="#DFDEDE" d="M88.866,39.659c-0.007,0.01-0.014,0.021-0.021,0.031c2.047,2.939,2.593,6.831,1.103,10.378
		c-0.302,0.718-0.675,1.384-1.103,1.999c1.693,2.431,4.287,4.018,7.118,4.485c2.065-2.943,2.62-6.849,1.124-10.41
		C95.592,42.583,92.414,40.244,88.866,39.659z"/>
	<path fill="#DFDEDE" d="M88.845,39.69c-0.007-0.011-0.014-0.021-0.021-0.031c-3.548,0.585-6.726,2.924-8.222,6.483
		c-1.496,3.561-0.941,7.466,1.125,10.41c2.831-0.467,5.425-2.054,7.118-4.485c-0.428-0.615-0.801-1.28-1.103-1.999
		C86.252,46.521,86.798,42.629,88.845,39.69z"/>
	<path fill="#DFDEDE" d="M95.843,27.504c0.013,0.001,0.025,0.001,0.038,0.002c1.557-3.227,4.678-5.613,8.499-6.056
		c0.774-0.09,1.538-0.094,2.283-0.023c1.286-2.668,1.394-5.706,0.411-8.401c-3.578-0.354-7.254,1.082-9.62,4.133
		C95.087,20.209,94.611,24.125,95.843,27.504z"/>
	<path fill="#DFDEDE" d="M95.881,27.506c-0.005,0.011-0.012,0.023-0.017,0.034c2.252,2.802,5.849,4.423,9.685,3.979
		c3.835-0.446,6.966-2.846,8.517-6.091c-1.798-2.237-4.454-3.72-7.402-4.001c-0.325,0.676-0.722,1.328-1.2,1.944
		C103.105,26.412,99.447,27.846,95.881,27.506z"/>
	<path fill="#DFDEDE" d="M81.602,35.894c-0.013-0.001-0.025-0.001-0.038-0.002c-1.556,3.227-4.677,5.613-8.499,6.057
		c-0.774,0.089-1.538,0.094-2.283,0.023c-1.285,2.667-1.394,5.705-0.411,8.401c3.578,0.353,7.253-1.082,9.62-4.132
		C82.357,43.188,82.833,39.271,81.602,35.894z"/>
	<path fill="#DFDEDE" d="M81.563,35.891c0.005-0.012,0.012-0.023,0.017-0.034c-2.252-2.803-5.85-4.424-9.685-3.979
		c-3.835,0.445-6.966,2.847-8.516,6.091c1.798,2.237,4.453,3.719,7.401,4.001c0.325-0.675,0.723-1.329,1.201-1.945
		C74.339,36.985,77.998,35.552,81.563,35.891z"/>
	<path fill="#DFDEDE" d="M114.36,38.162c-1.486-3.274-4.569-5.736-8.395-6.256c-3.827-0.521-7.455,1.029-9.761,3.787
		c0.005,0.012,0.01,0.023,0.016,0.035c3.572-0.27,7.201,1.236,9.5,4.322c0.466,0.625,0.852,1.286,1.165,1.968
		C109.837,41.793,112.52,40.362,114.36,38.162z"/>
	<path fill="#DFDEDE" d="M104.599,41.949c-3.812-0.519-6.886-2.966-8.378-6.222c-0.013,0-0.025,0-0.038,0.001
		c-1.297,3.353-0.899,7.278,1.408,10.374c2.306,3.097,5.953,4.605,9.537,4.321c1.036-2.676,0.989-5.715-0.243-8.407
		C106.137,42.074,105.373,42.054,104.599,41.949z"/>
	<path fill="#DFDEDE" d="M72.068,31.492c3.826,0.52,7.454-1.03,9.761-3.788c-0.005-0.011-0.012-0.022-0.017-0.034
		c-3.572,0.27-7.201-1.236-9.499-4.322c-0.466-0.626-0.853-1.286-1.165-1.968c-2.953,0.224-5.635,1.654-7.476,3.854
		C65.16,28.508,68.242,30.971,72.068,31.492z"/>
	<path fill="#DFDEDE" d="M73.435,21.448c3.813,0.519,6.886,2.966,8.378,6.222c0.012-0.001,0.025-0.001,0.038-0.001
		c1.298-3.354,0.899-7.278-1.407-10.375c-2.307-3.097-5.953-4.604-9.538-4.321c-1.036,2.676-0.989,5.715,0.243,8.408
		C71.897,21.323,72.661,21.343,73.435,21.448z"/>
	<path fill="#DFDEDE" d="M88.951,25.421c1.52-2.184,1.926-5.073,0.819-7.707c-0.224-0.534-0.5-1.029-0.819-1.484
		c-0.317,0.456-0.595,0.951-0.819,1.484C87.025,20.349,87.431,23.238,88.951,25.421z"/>
	<path fill="#DFDEDE" d="M88.842,37.583c-1.521,2.183-1.926,5.072-0.819,7.707c0.224,0.534,0.501,1.028,0.819,1.484
		c0.318-0.457,0.595-0.951,0.819-1.484C90.768,42.655,90.362,39.766,88.842,37.583z"/>
	<path fill="#DFDEDE"  a:adobe-blending-mode="multiply" d="M88.951,25.421c1.52-2.184,1.926-5.073,0.819-7.707
		c-0.224-0.534-0.5-1.029-0.819-1.484c-0.317,0.456-0.595,0.951-0.819,1.484C87.025,20.349,87.431,23.238,88.951,25.421z"/>
	<path fill="#DFDEDE"  a:adobe-blending-mode="multiply" d="M88.842,37.583c-1.521,2.183-1.926,5.072-0.819,7.707
		c0.224,0.534,0.501,1.028,0.819,1.484c0.318-0.457,0.595-0.951,0.819-1.484C90.768,42.655,90.362,39.766,88.842,37.583z"/>
	<path fill="#DFDEDE" d="M94.319,34.639c1.108,2.419,3.391,4.237,6.223,4.622c0.574,0.078,1.142,0.092,1.697,0.05
		c-0.231-0.507-0.519-0.997-0.865-1.461C99.667,35.558,96.972,34.44,94.319,34.639z"/>
	<path fill="#DFDEDE" d="M83.62,28.656c-1.108-2.418-3.391-4.236-6.222-4.621c-0.575-0.078-1.142-0.093-1.697-0.051
		c0.231,0.507,0.519,0.997,0.865,1.461C78.271,27.738,80.967,28.857,83.62,28.656z"/>
	<path fill="#DFDEDE"  a:adobe-blending-mode="multiply" d="M94.319,34.639c1.108,2.419,3.391,4.237,6.223,4.622
		c0.574,0.078,1.142,0.092,1.697,0.05c-0.231-0.507-0.519-0.997-0.865-1.461C99.667,35.558,96.972,34.44,94.319,34.639z"/>
	<path fill="#DFDEDE"  a:adobe-blending-mode="multiply" d="M83.62,28.656c-1.108-2.418-3.391-4.236-6.222-4.621
		c-0.575-0.078-1.142-0.093-1.697-0.051c0.231,0.507,0.519,0.997,0.865,1.461C78.271,27.738,80.967,28.857,83.62,28.656z"/>
	<path fill="#DFDEDE" d="M100.378,24.037c-2.838,0.329-5.156,2.102-6.312,4.498c2.648,0.252,5.365-0.813,7.116-3.071
		c0.355-0.458,0.65-0.942,0.891-1.444C101.521,23.967,100.954,23.97,100.378,24.037z"/>
	<path fill="#DFDEDE" d="M77.448,39.259c2.838-0.329,5.156-2.101,6.312-4.498c-2.649-0.251-5.365,0.814-7.117,3.071
		c-0.355,0.458-0.649,0.942-0.891,1.444C76.306,39.329,76.873,39.326,77.448,39.259z"/>
	<path fill="#DFDEDE"  a:adobe-blending-mode="multiply" d="M100.378,24.037c-2.838,0.329-5.156,2.102-6.312,4.498
		c2.648,0.252,5.365-0.813,7.116-3.071c0.355-0.458,0.65-0.942,0.891-1.444C101.521,23.967,100.954,23.97,100.378,24.037z"/>
	<path fill="#DFDEDE"  a:adobe-blending-mode="multiply" d="M77.448,39.259c2.838-0.329,5.156-2.101,6.312-4.498
		c-2.649-0.251-5.365,0.814-7.117,3.071c-0.355,0.458-0.649,0.942-0.891,1.444C76.306,39.329,76.873,39.326,77.448,39.259z"/>
	<path fill="#DFDEDE" d="M88.971,23.444c0.007-0.011,0.015-0.021,0.021-0.032c-2.047-2.939-2.593-6.831-1.103-10.378
		c0.302-0.718,0.675-1.384,1.103-1.999c-1.693-2.43-4.286-4.018-7.118-4.485c-2.065,2.943-2.62,6.85-1.124,10.41
		C82.246,20.52,85.424,22.858,88.971,23.444z"/>
	<path fill="#DFDEDE" d="M88.992,23.413c0.007,0.011,0.014,0.021,0.021,0.032c3.547-0.586,6.726-2.924,8.222-6.483
		c1.495-3.56,0.941-7.466-1.125-10.41c-2.832,0.467-5.425,2.055-7.119,4.485c0.428,0.615,0.801,1.28,1.103,1.999
		C91.586,16.582,91.04,20.473,88.992,23.413z"/>
	<path fill="#DFDEDE" d="M88.866,39.659c-0.007,0.01-0.014,0.021-0.021,0.031c2.047,2.939,2.593,6.831,1.103,10.378
		c-0.302,0.718-0.675,1.384-1.103,1.999c1.693,2.431,4.287,4.018,7.118,4.485c2.065-2.943,2.62-6.849,1.124-10.41
		C95.592,42.583,92.414,40.244,88.866,39.659z"/>
	<path fill="#DFDEDE" d="M88.845,39.69c-0.007-0.011-0.014-0.021-0.021-0.031c-3.548,0.585-6.726,2.924-8.222,6.483
		c-1.496,3.561-0.941,7.466,1.125,10.41c2.831-0.467,5.425-2.054,7.118-4.485c-0.428-0.615-0.801-1.28-1.103-1.999
		C86.252,46.521,86.798,42.629,88.845,39.69z"/>
	<path fill="#DFDEDE" d="M95.843,27.504c0.013,0.001,0.025,0.001,0.038,0.002c1.557-3.227,4.678-5.613,8.499-6.056
		c0.774-0.09,1.538-0.094,2.283-0.023c1.286-2.668,1.394-5.706,0.411-8.401c-3.578-0.354-7.254,1.082-9.62,4.133
		C95.087,20.209,94.611,24.125,95.843,27.504z"/>
	<path fill="#DFDEDE" d="M95.881,27.506c-0.005,0.011-0.012,0.023-0.017,0.034c2.252,2.802,5.849,4.423,9.685,3.979
		c3.835-0.446,6.966-2.846,8.517-6.091c-1.798-2.237-4.454-3.72-7.402-4.001c-0.325,0.676-0.722,1.328-1.2,1.944
		C103.105,26.412,99.447,27.846,95.881,27.506z"/>
	<path fill="#DFDEDE" d="M81.602,35.894c-0.013-0.001-0.025-0.001-0.038-0.002c-1.556,3.227-4.677,5.613-8.499,6.057
		c-0.774,0.089-1.538,0.094-2.283,0.023c-1.285,2.667-1.394,5.705-0.411,8.401c3.578,0.353,7.253-1.082,9.62-4.132
		C82.357,43.188,82.833,39.271,81.602,35.894z"/>
	<path fill="#DFDEDE" d="M81.563,35.891c0.005-0.012,0.012-0.023,0.017-0.034c-2.252-2.803-5.85-4.424-9.685-3.979
		c-3.835,0.445-6.966,2.847-8.516,6.091c1.798,2.237,4.453,3.719,7.401,4.001c0.325-0.675,0.723-1.329,1.201-1.945
		C74.339,36.985,77.998,35.552,81.563,35.891z"/>
	<path fill="#DFDEDE" d="M114.36,38.162c-1.486-3.274-4.569-5.736-8.395-6.256c-3.827-0.521-7.455,1.029-9.761,3.787
		c0.005,0.012,0.01,0.023,0.016,0.035c3.572-0.27,7.201,1.236,9.5,4.322c0.466,0.625,0.852,1.286,1.165,1.968
		C109.837,41.793,112.52,40.362,114.36,38.162z"/>
	<path fill="#DFDEDE" d="M104.599,41.949c-3.812-0.519-6.886-2.966-8.378-6.222c-0.013,0-0.025,0-0.038,0.001
		c-1.297,3.353-0.899,7.278,1.408,10.374c2.306,3.097,5.953,4.605,9.537,4.321c1.036-2.676,0.989-5.715-0.243-8.407
		C106.137,42.074,105.373,42.054,104.599,41.949z"/>
	<path fill="#DFDEDE" d="M72.068,31.492c3.826,0.52,7.454-1.03,9.761-3.788c-0.005-0.011-0.012-0.022-0.017-0.034
		c-3.572,0.27-7.201-1.236-9.499-4.322c-0.466-0.626-0.853-1.286-1.165-1.968c-2.953,0.224-5.635,1.654-7.476,3.854
		C65.16,28.508,68.242,30.971,72.068,31.492z"/>
	<path fill="#DFDEDE" d="M73.435,21.448c3.813,0.519,6.886,2.966,8.378,6.222c0.012-0.001,0.025-0.001,0.038-0.001
		c1.298-3.354,0.899-7.278-1.407-10.375c-2.307-3.097-5.953-4.604-9.538-4.321c-1.036,2.676-0.989,5.715,0.243,8.408
		C71.897,21.323,72.661,21.343,73.435,21.448z"/>
	<path fill="#DFDEDE" d="M88.951,25.421c1.52-2.184,1.926-5.073,0.819-7.707c-0.224-0.534-0.5-1.029-0.819-1.484
		c-0.317,0.456-0.595,0.951-0.819,1.484C87.025,20.349,87.431,23.238,88.951,25.421z"/>
	<path fill="#DFDEDE" d="M88.842,37.583c-1.521,2.183-1.926,5.072-0.819,7.707c0.224,0.534,0.501,1.028,0.819,1.484
		c0.318-0.457,0.595-0.951,0.819-1.484C90.768,42.655,90.362,39.766,88.842,37.583z"/>
	<path fill="#DFDEDE"  a:adobe-blending-mode="multiply" d="M88.951,25.421c1.52-2.184,1.926-5.073,0.819-7.707
		c-0.224-0.534-0.5-1.029-0.819-1.484c-0.317,0.456-0.595,0.951-0.819,1.484C87.025,20.349,87.431,23.238,88.951,25.421z"/>
	<path fill="#DFDEDE"  a:adobe-blending-mode="multiply" d="M88.842,37.583c-1.521,2.183-1.926,5.072-0.819,7.707
		c0.224,0.534,0.501,1.028,0.819,1.484c0.318-0.457,0.595-0.951,0.819-1.484C90.768,42.655,90.362,39.766,88.842,37.583z"/>
	<path fill="#DFDEDE" d="M94.319,34.639c1.108,2.419,3.391,4.237,6.223,4.622c0.574,0.078,1.142,0.092,1.697,0.05
		c-0.231-0.507-0.519-0.997-0.865-1.461C99.667,35.558,96.972,34.44,94.319,34.639z"/>
	<path fill="#DFDEDE" d="M83.62,28.656c-1.108-2.418-3.391-4.236-6.222-4.621c-0.575-0.078-1.142-0.093-1.697-0.051
		c0.231,0.507,0.519,0.997,0.865,1.461C78.271,27.738,80.967,28.857,83.62,28.656z"/>
	<path fill="#DFDEDE"  a:adobe-blending-mode="multiply" d="M94.319,34.639c1.108,2.419,3.391,4.237,6.223,4.622
		c0.574,0.078,1.142,0.092,1.697,0.05c-0.231-0.507-0.519-0.997-0.865-1.461C99.667,35.558,96.972,34.44,94.319,34.639z"/>
	<path fill="#DFDEDE"  a:adobe-blending-mode="multiply" d="M83.62,28.656c-1.108-2.418-3.391-4.236-6.222-4.621
		c-0.575-0.078-1.142-0.093-1.697-0.051c0.231,0.507,0.519,0.997,0.865,1.461C78.271,27.738,80.967,28.857,83.62,28.656z"/>
	<path fill="#DFDEDE" d="M100.378,24.037c-2.838,0.329-5.156,2.102-6.312,4.498c2.648,0.252,5.365-0.813,7.116-3.071
		c0.355-0.458,0.65-0.942,0.891-1.444C101.521,23.967,100.954,23.97,100.378,24.037z"/>
	<path fill="#DFDEDE" d="M77.448,39.259c2.838-0.329,5.156-2.101,6.312-4.498c-2.649-0.251-5.365,0.814-7.117,3.071
		c-0.355,0.458-0.649,0.942-0.891,1.444C76.306,39.329,76.873,39.326,77.448,39.259z"/>
	<path fill="#DFDEDE"  a:adobe-blending-mode="multiply" d="M100.378,24.037c-2.838,0.329-5.156,2.102-6.312,4.498
		c2.648,0.252,5.365-0.813,7.116-3.071c0.355-0.458,0.65-0.942,0.891-1.444C101.521,23.967,100.954,23.97,100.378,24.037z"/>
	<path fill="#DFDEDE"  a:adobe-blending-mode="multiply" d="M77.448,39.259c2.838-0.329,5.156-2.101,6.312-4.498
		c-2.649-0.251-5.365,0.814-7.117,3.071c-0.355,0.458-0.649,0.942-0.891,1.444C76.306,39.329,76.873,39.326,77.448,39.259z"/>
</g>
<g>
	<path fill="#DFDEDE" d="M14.196,73.905c-0.608-0.778-1.825-1.143-2.75-1.143c-1.071,0-2.555,0.486-2.555,1.776
		c0,3.139,7.933,1.12,7.933,7.154c0,3.845-3.09,5.67-6.643,5.67c-2.214,0-4.161-0.657-5.791-2.166l2.701-2.969
		c0.779,1.022,2.044,1.63,3.31,1.63c1.241,0,2.628-0.584,2.628-1.801c0-3.163-8.079-1.459-8.079-7.203
		c0-3.674,3.188-5.597,6.57-5.597c1.947,0,3.82,0.511,5.28,1.801L14.196,73.905z"/>
	<path fill="#DFDEDE" d="M30.57,86.924h-3.504v-1.606h-0.048c-0.487,0.925-1.679,1.898-3.456,1.898c-3.699,0-4.38-2.434-4.38-5.597
		v-6.521h3.65v5.791c0,1.363,0.024,3.115,1.898,3.115c1.898,0,2.19-1.484,2.19-3.017v-5.889h3.65V86.924z"/>
	<path fill="#DFDEDE" d="M33.148,75.098h3.504v1.606h0.048c0.487-0.925,1.679-1.898,3.456-1.898c3.699,0,4.38,2.434,4.38,5.597
		v6.521h-3.65v-5.791c0-1.363-0.024-3.115-1.898-3.115c-1.898,0-2.19,1.484-2.19,3.017v5.889h-3.65V75.098z"/>
	<path fill="#DFDEDE" d="M53.806,78.578c-0.535-0.657-1.241-0.998-2.117-0.998c-0.608,0-1.338,0.268-1.338,0.973
		c0,1.752,6.157,0.268,6.157,4.77c0,3.017-2.92,3.894-5.451,3.894c-1.655,0-3.48-0.414-4.648-1.606l2.214-2.458
		c0.682,0.828,1.484,1.29,2.58,1.29c0.827,0,1.654-0.219,1.654-0.852c0-1.898-6.156-0.292-6.156-4.793
		c0-2.774,2.482-3.991,4.964-3.991c1.558,0,3.285,0.39,4.38,1.558L53.806,78.578z"/>
	<path fill="#DFDEDE" d="M62.029,68.528v8.176h0.049c0.341-0.925,1.533-1.898,3.31-1.898c3.698,0,4.379,2.434,4.379,5.597v6.521
		h-3.65v-5.791c0-1.363-0.024-3.115-1.897-3.115c-1.898,0-2.19,1.484-2.19,3.017v5.889h-3.65V68.528H62.029z"/>
	<path fill="#DFDEDE" d="M74.219,69.258c1.168,0,2.117,0.949,2.117,2.117s-0.949,2.117-2.117,2.117
		c-1.168,0-2.117-0.949-2.117-2.117S73.05,69.258,74.219,69.258z M72.394,75.098h3.65v11.826h-3.65V75.098z"/>
	<path fill="#DFDEDE" d="M78.671,75.098h3.504v1.606h0.049c0.487-0.925,1.679-1.898,3.456-1.898c3.698,0,4.379,2.434,4.379,5.597
		v6.521h-3.65v-5.791c0-1.363-0.024-3.115-1.898-3.115c-1.897,0-2.19,1.484-2.19,3.017v5.889h-3.65V75.098z"/>
	<path fill="#DFDEDE" d="M103.83,84.88c-1.168,1.484-3.09,2.336-4.988,2.336c-3.65,0-6.57-2.434-6.57-6.205
		c0-3.772,2.92-6.206,6.57-6.206c3.407,0,5.548,2.434,5.548,6.206v1.144h-8.468c0.292,1.387,1.338,2.287,2.75,2.287
		c1.192,0,1.996-0.608,2.604-1.436L103.83,84.88z M100.739,79.672c0.024-1.217-0.924-2.238-2.239-2.238
		c-1.606,0-2.482,1.095-2.579,2.238H100.739z"/>
	<path fill="#DFDEDE" d="M119.989,73.151c-1.168-1.241-2.798-1.995-4.915-1.995c-4.429,0-7.081,3.479-7.081,7.446
		s2.652,7.446,7.081,7.446c1.776,0,3.479-0.486,4.77-1.217v-5.767h-4.112v-1.605h5.864v8.443c-1.923,1.144-4.429,1.752-6.521,1.752
		c-5.134,0-8.979-3.82-8.979-9.052c0-5.231,3.845-9.052,8.979-9.052c2.725,0,4.696,0.779,6.229,2.312L119.989,73.151z"/>
	<path fill="#DFDEDE" d="M125.779,79.381c0-1.022-0.049-1.898-0.098-3.552h1.582v2.117h0.049c0.462-1.217,1.655-2.409,3.65-2.409
		c0.462,0,0.852,0.049,1.192,0.146l-0.316,1.582c-0.194-0.073-0.486-0.122-0.924-0.122c-2.434,0-3.529,2.117-3.529,3.65v6.424
		h-1.605V79.381z"/>
	<path fill="#DFDEDE" d="M138.703,87.508c-3.528,0-6.035-2.555-6.035-5.986c0-3.431,2.506-5.986,6.035-5.986
		c3.553,0,6.059,2.555,6.059,5.986C144.762,84.953,142.256,87.508,138.703,87.508z M138.703,76.997
		c-2.628,0-4.283,1.971-4.283,4.525c0,2.556,1.654,4.526,4.283,4.526c2.652,0,4.307-1.971,4.307-4.526
		C143.01,78.967,141.355,76.997,138.703,76.997z"/>
	<path fill="#DFDEDE" d="M155.905,87.216c-0.073-0.608-0.073-1.217-0.073-1.825h-0.049c-0.706,1.241-2.312,2.117-3.82,2.117
		c-2.896,0-4.283-1.63-4.283-4.453v-7.227h1.606v6.302c0,2.531,0.706,3.917,3.09,3.917c0.341,0,3.456-0.219,3.456-4.38v-5.84h1.605
		v8.881c0,0.608,0.073,1.679,0.122,2.506H155.905z"/>
	<path fill="#DFDEDE" d="M161.208,75.829h1.606v1.898h0.048c1.046-1.533,2.92-2.19,4.429-2.19c3.553,0,6.059,2.555,6.059,5.986
		c0,3.431-2.506,5.986-6.059,5.986c-1.508,0-3.382-0.657-4.429-2.19h-0.048v8.906h-1.606V75.829z M167.292,76.997
		c-2.628,0-4.55,1.971-4.55,4.525c0,2.556,1.922,4.526,4.55,4.526c2.652,0,4.307-1.971,4.307-4.526
		C171.599,78.967,169.944,76.997,167.292,76.997z"/>
</g>
</svg>
