<?xml version="1.0" encoding="utf-8"?>
<!-- Generator: Adobe Illustrator 16.0.4, SVG Export Plug-In . SVG Version: 6.00 Build 0)  -->
<!DOCTYPE svg PUBLIC "-//W3C//DTD SVG 1.1//EN" "http://www.w3.org/Graphics/SVG/1.1/DTD/svg11.dtd" [
	<!ENTITY ns_flows "http://ns.adobe.com/Flows/1.0/">
	<!ENTITY ns_extend "http://ns.adobe.com/Extensibility/1.0/">
	<!ENTITY ns_ai "http://ns.adobe.com/AdobeIllustrator/10.0/">
	<!ENTITY ns_graphs "http://ns.adobe.com/Graphs/1.0/">
]>
<svg version="1.1" id="Layer_1" xmlns:x="&ns_extend;" xmlns:i="&ns_ai;" xmlns:graph="&ns_graphs;"
	 xmlns="http://www.w3.org/2000/svg" xmlns:xlink="http://www.w3.org/1999/xlink" xmlns:a="http://ns.adobe.com/AdobeSVGViewerExtensions/3.0/"
	 x="0px" y="0px" width="330px" height="85px" viewBox="0 0 330 85" enable-background="new 0 0 330 85" xml:space="preserve">
<g>
	<g  a:adobe-blending-mode="multiply">
		<path fill="#B3B3B3"  a:adobe-blending-mode="normal" d="M109.414,34.151c-0.831-1.06-2.486-1.557-3.746-1.557
			c-1.456,0-3.478,0.663-3.478,2.418c0,4.273,10.8,1.524,10.8,9.74c0,5.233-4.208,7.719-9.044,7.719
			c-3.014,0-5.664-0.896-7.884-2.949l3.677-4.042c1.06,1.391,2.783,2.22,4.506,2.22c1.688,0,3.576-0.795,3.576-2.452
			c0-4.306-10.997-1.987-10.997-9.806c0-5.002,4.34-7.62,8.945-7.62c2.649,0,5.2,0.697,7.188,2.452L109.414,34.151z"/>
		<path fill="#B3B3B3"  a:adobe-blending-mode="normal" d="M131.707,51.875h-4.771v-2.186h-0.066
			c-0.663,1.259-2.285,2.583-4.704,2.583c-5.035,0-5.964-3.312-5.964-7.619v-8.878h4.97v7.884c0,1.855,0.034,4.241,2.585,4.241
			c2.584,0,2.98-2.021,2.98-4.108v-8.017h4.97V51.875z"/>
		<path fill="#B3B3B3"  a:adobe-blending-mode="normal" d="M135.217,35.775h4.771v2.187h0.065c0.664-1.259,2.286-2.584,4.705-2.584
			c5.035,0,5.964,3.312,5.964,7.619v8.878h-4.971V43.99c0-1.855-0.033-4.241-2.585-4.241c-2.583,0-2.98,2.021-2.98,4.108v8.017
			h-4.969V35.775z"/>
		<path fill="#B3B3B3"  a:adobe-blending-mode="normal" d="M163.339,40.512c-0.728-0.894-1.688-1.358-2.881-1.358
			c-0.827,0-1.822,0.365-1.822,1.326c0,2.384,8.381,0.364,8.381,6.492c0,4.108-3.974,5.301-7.42,5.301
			c-2.252,0-4.738-0.563-6.326-2.187l3.014-3.346c0.929,1.126,2.021,1.755,3.511,1.755c1.126,0,2.253-0.298,2.253-1.159
			c0-2.584-8.381-0.398-8.381-6.527c0-3.776,3.379-5.432,6.757-5.432c2.122,0,4.473,0.53,5.962,2.12L163.339,40.512z"/>
		<path fill="#B3B3B3"  a:adobe-blending-mode="normal" d="M174.537,26.83v11.131h0.066c0.465-1.259,2.086-2.584,4.506-2.584
			c5.035,0,5.963,3.312,5.963,7.619v8.878h-4.969V43.99c0-1.855-0.035-4.241-2.586-4.241c-2.584,0-2.98,2.021-2.98,4.108v8.017
			h-4.969V26.83H174.537z"/>
		<path fill="#B3B3B3"  a:adobe-blending-mode="normal" d="M191.133,27.824c1.59,0,2.881,1.292,2.881,2.882
			c0,1.591-1.291,2.882-2.881,2.882s-2.881-1.292-2.881-2.882C188.252,29.116,189.543,27.824,191.133,27.824z M188.648,35.775h4.969
			v16.1h-4.969V35.775z"/>
		<path fill="#B3B3B3"  a:adobe-blending-mode="normal" d="M197.195,35.775h4.77v2.187h0.066c0.664-1.259,2.285-2.584,4.705-2.584
			c5.035,0,5.963,3.312,5.963,7.619v8.878h-4.969V43.99c0-1.855-0.035-4.241-2.586-4.241c-2.584,0-2.98,2.021-2.98,4.108v8.017
			h-4.969V35.775z"/>
		<path fill="#B3B3B3"  a:adobe-blending-mode="normal" d="M231.447,49.092c-1.59,2.021-4.207,3.18-6.791,3.18
			c-4.969,0-8.943-3.312-8.943-8.448c0-5.134,3.975-8.447,8.943-8.447c4.639,0,7.553,3.312,7.553,8.447v1.558h-11.527
			c0.398,1.888,1.822,3.113,3.742,3.113c1.623,0,2.717-0.828,3.545-1.955L231.447,49.092z M227.24,42.002
			c0.035-1.656-1.258-3.047-3.047-3.047c-2.188,0-3.379,1.491-3.512,3.047H227.24z"/>
		<path fill="#B3B3B3"  a:adobe-blending-mode="normal" d="M253.975,32.727c-1.59-1.689-3.811-2.716-6.691-2.716
			c-6.031,0-9.641,4.737-9.641,10.137c0,5.399,3.609,10.137,9.641,10.137c2.418,0,4.736-0.663,6.492-1.657v-7.851h-5.6V38.59h7.986
			v11.495c-2.619,1.558-6.031,2.386-8.879,2.386c-6.99,0-12.227-5.202-12.227-12.324s5.236-12.324,12.227-12.324
			c3.711,0,6.393,1.06,8.48,3.147L253.975,32.727z"/>
		<path fill="#B3B3B3"  a:adobe-blending-mode="normal" d="M261.857,41.208c0-1.392-0.066-2.584-0.133-4.837h2.154v2.882h0.064
			c0.631-1.656,2.254-3.279,4.971-3.279c0.629,0,1.158,0.066,1.623,0.198l-0.43,2.153c-0.266-0.099-0.664-0.165-1.26-0.165
			c-3.312,0-4.803,2.882-4.803,4.969v8.746h-2.188V41.208z"/>
		<path fill="#B3B3B3"  a:adobe-blending-mode="normal" d="M279.455,52.272c-4.805,0-8.217-3.478-8.217-8.149
			c0-4.671,3.412-8.149,8.217-8.149c4.834,0,8.248,3.478,8.248,8.149C287.703,48.794,284.289,52.272,279.455,52.272z
			 M279.455,37.961c-3.58,0-5.832,2.683-5.832,6.161s2.252,6.162,5.832,6.162c3.609,0,5.861-2.684,5.861-6.162
			S283.064,37.961,279.455,37.961z"/>
		<path fill="#B3B3B3"  a:adobe-blending-mode="normal" d="M302.873,51.875c-0.098-0.828-0.098-1.657-0.098-2.485h-0.066
			c-0.961,1.69-3.148,2.882-5.201,2.882c-3.943,0-5.832-2.219-5.832-6.062v-9.839h2.188v8.58c0,3.445,0.961,5.334,4.207,5.334
			c0.463,0,4.705-0.299,4.705-5.963v-7.951h2.184v12.092c0,0.828,0.102,2.286,0.168,3.412H302.873z"/>
		<path fill="#B3B3B3"  a:adobe-blending-mode="normal" d="M310.094,36.371h2.188v2.584h0.066c1.424-2.087,3.977-2.981,6.029-2.981
			c4.836,0,8.248,3.478,8.248,8.149c0,4.671-3.412,8.149-8.248,8.149c-2.053,0-4.605-0.895-6.029-2.981h-0.066v12.124h-2.188V36.371
			z M318.377,37.961c-3.576,0-6.195,2.683-6.195,6.161s2.619,6.162,6.195,6.162c3.611,0,5.863-2.684,5.863-6.162
			S321.988,37.961,318.377,37.961z"/>
	</g>
	<g>
		<path fill="#E2E71F" d="M41.762,30.34c0.011-0.016,0.021-0.032,0.031-0.047c-3.07-4.409-3.89-10.247-1.654-15.568
			c0.453-1.078,1.014-2.075,1.654-2.998C39.255,8.082,35.364,5.702,31.118,5c-3.1,4.416-3.931,10.275-1.688,15.615
			C31.674,25.955,36.441,29.46,41.762,30.34z"/>
		<path fill="#E2E71F" d="M41.793,30.293c0.012,0.015,0.021,0.031,0.033,0.047c5.319-0.88,10.087-4.386,12.33-9.725
			C56.401,15.275,55.569,9.416,52.471,5c-4.248,0.702-8.138,3.082-10.678,6.728c0.642,0.922,1.202,1.919,1.654,2.998
			C45.683,20.047,44.864,25.884,41.793,30.293z"/>
		<path fill="#E2E71F" d="M41.604,54.662c-0.011,0.015-0.02,0.03-0.031,0.046c3.07,4.41,3.89,10.247,1.654,15.568
			c-0.452,1.076-1.012,2.075-1.654,2.997c2.54,3.645,6.43,6.027,10.678,6.727c3.098-4.414,3.929-10.273,1.686-15.614
			C51.693,59.047,46.926,55.541,41.604,54.662z"/>
		<path fill="#E2E71F" d="M41.573,54.708c-0.01-0.017-0.021-0.032-0.032-0.046c-5.321,0.879-10.088,4.385-12.331,9.724
			c-2.243,5.341-1.413,11.2,1.686,15.614c4.248-0.7,8.138-3.082,10.678-6.727c-0.641-0.922-1.201-1.92-1.654-2.997
			C37.683,64.955,38.502,59.118,41.573,54.708z"/>
		<path fill="#95D600" d="M52.069,36.429c0.021,0.002,0.038,0.002,0.058,0.003c2.334-4.838,7.017-8.418,12.749-9.083
			c1.16-0.135,2.308-0.141,3.424-0.035c1.93-4.001,2.092-8.558,0.616-12.602c-5.366-0.53-10.88,1.624-14.431,6.199
			C50.937,25.488,50.222,31.362,52.069,36.429z"/>
		<path fill="#95D600" d="M52.126,36.432c-0.009,0.018-0.017,0.034-0.026,0.052c3.38,4.204,8.774,6.635,14.528,5.969
			c5.754-0.668,10.449-4.271,12.773-9.137c-2.696-3.355-6.68-5.58-11.103-6.001c-0.486,1.014-1.083,1.992-1.801,2.917
			C62.961,34.792,57.475,36.942,52.126,36.432z"/>
		<path fill="#95D600" d="M30.708,49.015c-0.02-0.002-0.04-0.002-0.058-0.004c-2.334,4.839-7.016,8.417-12.749,9.083
			c-1.16,0.135-2.308,0.142-3.424,0.035c-1.929,4.001-2.092,8.559-0.616,12.601c5.365,0.531,10.879-1.623,14.431-6.199
			C31.84,59.956,32.556,54.081,30.708,49.015z"/>
		<path fill="#95D600" d="M30.651,49.011c0.009-0.018,0.017-0.035,0.025-0.053c-3.378-4.203-8.774-6.634-14.526-5.967
			c-5.755,0.669-10.449,4.27-12.774,9.137c2.696,3.355,6.679,5.579,11.103,6.001c0.486-1.013,1.083-1.993,1.799-2.917
			C19.814,50.652,25.302,48.501,30.651,49.011z"/>
		<path fill="#8AE2D1" d="M79.844,52.417c-2.229-4.912-6.853-8.605-12.591-9.386c-5.738-0.78-11.181,1.545-14.643,5.681
			c0.008,0.018,0.017,0.035,0.026,0.052c5.357-0.404,10.8,1.855,14.247,6.484c0.699,0.938,1.28,1.928,1.748,2.951
			C73.06,57.863,77.084,55.717,79.844,52.417z"/>
		<path fill="#8AE2D1" d="M65.205,58.097c-5.719-0.777-10.33-4.448-12.567-9.333c-0.021,0.002-0.039,0.002-0.058,0.002
			c-1.947,5.029-1.349,10.918,2.11,15.563c3.459,4.644,8.929,6.906,14.305,6.481c1.554-4.014,1.485-8.574-0.362-12.613
			C67.509,58.284,66.364,58.255,65.205,58.097z"/>
		<path fill="#8AE2D1" d="M16.409,42.412c5.738,0.78,11.181-1.544,14.64-5.682c-0.007-0.017-0.016-0.034-0.023-0.051
			c-5.358,0.404-10.802-1.854-14.248-6.484c-0.7-0.938-1.28-1.928-1.748-2.952c-4.429,0.337-8.452,2.481-11.213,5.783
			C6.043,37.937,10.669,41.63,16.409,42.412z"/>
		<path fill="#8AE2D1" d="M18.458,27.345c5.719,0.778,10.329,4.45,12.567,9.334c0.02-0.001,0.037-0.001,0.057-0.002
			c1.946-5.03,1.349-10.918-2.111-15.562c-3.459-4.646-8.929-6.906-14.305-6.481c-1.554,4.014-1.484,8.572,0.363,12.611
			C16.15,27.159,17.297,27.188,18.458,27.345z"/>
		<path fill="#E2E71F" d="M41.732,33.307c2.279-3.276,2.889-7.61,1.228-11.562c-0.334-0.8-0.75-1.542-1.228-2.227
			c-0.476,0.685-0.893,1.426-1.229,2.227C38.842,25.697,39.453,30.031,41.732,33.307z"/>
		<path fill="#E2E71F" d="M41.567,51.548c-2.279,3.275-2.888,7.61-1.227,11.56c0.334,0.8,0.75,1.543,1.227,2.226
			c0.479-0.683,0.894-1.426,1.229-2.226C44.457,59.158,43.849,54.823,41.567,51.548z"/>
		<path fill="#E2E71F"  a:adobe-blending-mode="multiply" d="M41.732,33.307c2.279-3.276,2.889-7.61,1.228-11.562
			c-0.334-0.8-0.75-1.542-1.228-2.227c-0.476,0.685-0.893,1.426-1.229,2.227C38.842,25.697,39.453,30.031,41.732,33.307z"/>
		<path fill="#E2E71F"  a:adobe-blending-mode="multiply" d="M41.567,51.548c-2.279,3.275-2.888,7.61-1.227,11.56
			c0.334,0.8,0.75,1.543,1.227,2.226c0.479-0.683,0.894-1.426,1.229-2.226C44.457,59.158,43.849,54.823,41.567,51.548z"/>
		<path fill="#8AE2D1" d="M49.783,47.133c1.664,3.627,5.088,6.354,9.334,6.932c0.861,0.116,1.714,0.138,2.546,0.075
			c-0.347-0.759-0.777-1.495-1.297-2.191C57.805,48.51,53.764,46.833,49.783,47.133z"/>
		<path fill="#8AE2D1" d="M33.735,38.158c-1.662-3.628-5.087-6.354-9.335-6.931c-0.859-0.117-1.711-0.139-2.544-0.075
			c0.347,0.76,0.777,1.494,1.296,2.191C25.713,36.781,29.756,38.458,33.735,38.158z"/>
		<path fill="#8AE2D1"  a:adobe-blending-mode="multiply" d="M49.783,47.133c1.664,3.627,5.088,6.354,9.334,6.932
			c0.861,0.116,1.714,0.138,2.546,0.075c-0.347-0.759-0.777-1.495-1.297-2.191C57.805,48.51,53.764,46.833,49.783,47.133z"/>
		<path fill="#8AE2D1"  a:adobe-blending-mode="multiply" d="M33.735,38.158c-1.662-3.628-5.087-6.354-9.335-6.931
			c-0.859-0.117-1.711-0.139-2.544-0.075c0.347,0.76,0.777,1.494,1.296,2.191C25.713,36.781,29.756,38.458,33.735,38.158z"/>
		<path fill="#95D600" d="M58.873,31.229c-4.256,0.494-7.733,3.152-9.468,6.746c3.973,0.379,8.048-1.22,10.676-4.605
			c0.532-0.687,0.975-1.414,1.336-2.167C60.586,31.125,59.736,31.129,58.873,31.229z"/>
		<path fill="#95D600" d="M24.478,54.062c4.257-0.492,7.733-3.152,9.468-6.746c-3.974-0.378-8.048,1.219-10.675,4.606
			c-0.532,0.686-0.975,1.414-1.336,2.166C22.764,54.167,23.616,54.163,24.478,54.062z"/>
		<path fill="#95D600"  a:adobe-blending-mode="multiply" d="M58.873,31.229c-4.256,0.494-7.733,3.152-9.468,6.746
			c3.973,0.379,8.048-1.22,10.676-4.605c0.532-0.687,0.975-1.414,1.336-2.167C60.586,31.125,59.736,31.129,58.873,31.229z"/>
		<path fill="#95D600"  a:adobe-blending-mode="multiply" d="M24.478,54.062c4.257-0.492,7.733-3.152,9.468-6.746
			c-3.974-0.378-8.048,1.219-10.675,4.606c-0.532,0.686-0.975,1.414-1.336,2.166C22.764,54.167,23.616,54.163,24.478,54.062z"/>
	</g>
</g>
</svg>
